<?xml version="1.0" encoding="UTF-8"?>
<svg width="352px" height="147px" viewBox="0 0 352 147" version="1.1" xmlns="http://www.w3.org/2000/svg" xmlns:xlink="http://www.w3.org/1999/xlink">
    <!-- Generator: Sketch 46.2 (44496) - http://www.bohemiancoding.com/sketch -->
    <title>Logo</title>
    <desc>Created with Sketch.</desc>
    <defs></defs>
    <g id="Exportables" stroke="none" stroke-width="1" fill="none" fill-rule="evenodd">
        <g id="Logo" fill="#1C4459">
            <g id="Tjuna-Logo" transform="translate(1.000000, 1.000000)">
                <path d="M161.407242,98.2474994 C150.514039,98.2474994 141.680539,89.3899038 141.680539,78.4643024 C141.680539,78.0158717 141.700072,77.5696178 141.730458,77.1277176 C141.717435,76.9688077 141.708754,76.8098978 141.708754,76.6422805 L141.708754,34 L127,34 L127,77.2387369 C127,77.667576 127.004341,78.0920614 127.010852,78.51437 L127.017363,78.4643024 C127.017363,97.5226089 142.422813,112.973878 161.424605,112.973878 C162.030144,112.973878 162.568402,112.980408 163.043718,113 L190,113 L190,34 L175.289076,34 L175.289076,98.2474994 L162.50546,98.2474994" id="Fill-408"></path>
                <path d="M237.593944,48.7520941 C248.484601,48.7520941 257.319967,57.6116224 257.319967,68.5369227 C257.319967,68.9875179 257.298264,69.4315827 257.267879,69.8734707 C257.280901,70.0301995 257.289582,70.1912818 257.289582,70.3588945 L257.289582,113 L272,113 L272,69.7646313 C272,69.3336272 271.993489,68.9091535 271.989148,68.4868566 L271.982637,68.5369227 C271.982637,49.4791414 256.575548,34.0282982 237.576581,34.0282982 C236.971062,34.0282982 236.430653,34.0195911 235.955353,34 L209,34 L209,113 L223.714758,113 L223.714758,48.7520941 L236.493592,48.7520941" id="Fill-410"></path>
                <path d="M302.744039,87.9222929 C302.744039,81.9858138 306.431304,78.0034983 313.472009,77.6509655 C313.543543,77.6379087 313.617245,77.6248519 313.68878,77.6248519 L335.307298,77.6248519 L335.307298,98.2132055 L315.819633,98.2132055 C315.383925,98.2175578 314.937377,98.2197339 314.464818,98.2197339 C307.007914,98.2197339 302.728865,94.9685976 302.728865,88.0093381 L302.744039,87.9222929 Z M315.75677,34.0043523 C315.713416,34.0021761 315.674397,34.0021761 315.635378,34.0021761 L314.532017,34 L307.294051,34 L299.067612,34 L295.137563,48.7193345 L315.635378,48.7193345 C315.906341,48.7193345 316.144789,48.7258629 316.368062,48.7345674 C316.461274,48.7367435 316.556653,48.7432719 316.649864,48.7476242 C316.68238,48.7498003 316.719231,48.7519764 316.751746,48.7541525 C325.199291,49.2285486 332.218319,55.0409883 334.529092,62.8881084 L333.642501,62.8881084 C333.644668,62.8881084 333.644668,62.8881084 333.644668,62.8902845 L315.336235,62.8902845 C315.065272,62.9011652 314.779135,62.9076936 314.464818,62.9076936 C298.764133,62.9076936 287,73.4989119 287,87.9309974 C287,103.007217 298.766301,112.941245 314.464818,112.941245 L314.534184,112.941245 C314.685924,112.941245 314.841998,112.943421 314.989402,112.943421 L315.065272,112.947773 L335.307298,113 L350,113 L350,68.4981682 C350,49.4853318 334.680831,34.0696361 315.75677,34.0043523 L315.75677,34.0043523 Z" id="Fill-412"></path>
                <polygon id="Fill-414" points="73 0 3.90741568 0 0 14.850709 28.6427912 14.850709 28.6427912 114 43.3705755 114 43.3705755 14.850709 68.9534994 14.850709"></polygon>
                <polygon id="Fill-416" points="89 15 108 15 108 0 92.987299 0"></polygon>
                <path d="M83.8602124,34 L79.8065706,48.7538524 L93.1190987,48.7429704 L93.1190987,97.6946814 C93.1190987,97.8122073 93.1278728,97.923204 93.1278728,98.0385535 C93.1278728,98.153903 93.1190987,98.2692524 93.1190987,98.3846019 C93.1190987,98.3846019 93.0313575,100.489186 92.996261,101.183459 C92.9194875,102.669944 92.8141981,104.221721 92.2767835,107.070636 C92.167107,107.64956 92.0618176,108.274188 91.8622065,108.935815 C88.3766888,123.848546 77.9069744,136.093002 64.0526447,142.102058 C63.9363877,142.152115 64.116257,142.075941 64,142.123822 L65.0485069,146 C67.3253901,145.068498 78.1219403,140.942034 87.6374695,134.887274 C87.8041777,134.765395 87.9730794,134.645693 88.1485617,134.53252 C100.105489,126.767105 108,113.275568 108,98.0385535 L108,34 L83.8602124,34 Z" id="Fill-418"></path>
            </g>
        </g>
    </g>
</svg>